<svg width="108" height="119" viewBox="0 0 108 119" fill="none" xmlns="http://www.w3.org/2000/svg">
<path d="M11.0069 15.8276C11.4849 18.506 12.4709 21.6041 13.4981 25.3405C14.7158 29.0178 16.153 33.2934 18.25 38.0932C22.3097 47.7427 28.8815 59.0903 37.386 69.6786C45.9102 80.2579 56.3561 89.9518 66.7075 97.4891C77.0562 105.049 87.1893 110.557 94.723 113.965C102.261 117.386 107.194 118.752 107.31 118.406C107.431 118.066 102.8 116.073 95.6362 112.137C88.475 108.214 78.7947 102.306 68.9522 94.5339C59.1046 86.781 49.2196 77.0738 41.1815 66.6813C33.1602 56.2733 26.972 45.296 23.0676 36.0111C21.0481 31.3937 19.6343 27.2926 18.3945 23.7704C17.3429 20.1908 16.2885 17.2341 15.7037 14.6728C15.0675 12.1295 14.4139 10.1047 14.0566 8.43516C13.8776 7.66851 13.7111 6.99887 13.5553 6.39463C14.5246 7.12347 15.4658 7.83258 16.3611 8.50699C18.3784 10.0471 20.2089 11.4368 21.7775 12.5647C24.9122 14.8243 27.0034 16.0449 27.3877 15.6251C27.7739 15.2056 26.3776 13.2122 23.7253 10.3577C22.3966 8.93312 20.7588 7.2897 18.8382 5.53889C17.8784 4.66405 16.8494 3.76084 15.7262 2.8525C15.1663 2.39709 14.579 1.9423 13.9424 1.4866L13.4481 1.14388C13.1846 0.973903 12.8388 0.738052 12.5305 0.595184C11.8955 0.216547 11.2367 0.0604014 10.5826 3.28427e-06L10.3421 0.0308137C10.2763 0.125255 10.186 0.0964844 10.108 0.135389L9.633 0.272748C9.46913 0.298772 9.32954 0.399474 9.19047 0.503278C9.05502 0.60969 8.90138 0.678782 8.77855 0.819573C8.53226 1.10509 8.24634 1.33571 8.03732 1.66566L7.69988 2.13347L7.53762 2.36184L7.45297 2.49771C7.22017 2.86221 7.01211 3.21758 6.81254 3.57029C6.41995 4.27271 6.05894 4.96105 5.7292 5.63727C5.0635 6.99072 4.47812 8.30362 3.9471 9.56165C2.89015 12.0775 2.04751 14.3744 1.41038 16.3317C0.136459 20.2444 -0.31799 22.79 0.226197 23.0115C0.773179 23.2344 2.2104 21.1035 4.17617 17.5302C5.16061 15.7433 6.27784 13.5979 7.50391 11.2297C8.1211 10.0573 8.76951 8.82944 9.44051 7.55566C9.48229 7.47856 9.52575 7.40371 9.56722 7.32857C9.6277 7.91637 9.69627 8.55401 9.78495 9.27976C9.96881 11.0345 10.4782 13.1632 11.0069 15.8276Z" fill="#DAFF02"/>
</svg>
